<svg width="22" height="24" viewBox="0 0 22 24" fill="none" xmlns="http://www.w3.org/2000/svg">
<path d="M0.875 9.88014C0.875 8.92659 1.32832 8.02983 2.09615 7.46442L10.875 1L19.6538 7.46443C20.4217 8.02983 20.875 8.92659 20.875 9.88014V20.5C20.875 21.8807 19.7557 23 18.375 23H14.875C14.3227 23 13.875 22.5523 13.875 22V16C13.875 15.7239 13.6511 15.5 13.375 15.5H8.375C8.09886 15.5 7.875 15.7239 7.875 16V22C7.875 22.5523 7.42728 23 6.875 23H3.375C1.99429 23 0.875 21.8807 0.875 20.5V9.88014Z" stroke="#14142B" stroke-linecap="round" stroke-linejoin="round"/>
</svg>
