<svg width="21" height="20" viewBox="0 0 21 20" fill="none" xmlns="http://www.w3.org/2000/svg">
<path d="M13.2951 4.88867H4.97142C3.95642 4.88867 3.12598 5.71866 3.12598 6.73411V13.0378C3.12598 14.0528 3.95642 14.8832 4.97142 14.8832H12.4427L16.8348 10.4912V8.42831M16.8349 10.4914L12.4428 14.8834M4.31661 17.5256C4.05306 17.2354 3.90732 16.8572 3.90791 16.4652C3.90791 15.5915 4.61603 14.8834 5.48974 14.8834M14.2672 18.0471H6.77314" stroke="#14142B" stroke-width="0.5" stroke-miterlimit="10" stroke-linecap="round" stroke-linejoin="round"/>
<path d="M5.48956 19.3308C6.19859 19.3308 6.77338 18.756 6.77338 18.047C6.77338 17.338 6.19859 16.7632 5.48956 16.7632C4.78053 16.7632 4.20575 17.338 4.20575 18.047C4.20575 18.756 4.78053 19.3308 5.48956 19.3308Z" stroke="#14142B" stroke-width="0.5" stroke-miterlimit="10" stroke-linecap="round" stroke-linejoin="round"/>
<path d="M15.5511 19.3308C16.2602 19.3308 16.835 18.756 16.835 18.047C16.835 17.338 16.2602 16.7632 15.5511 16.7632C14.8421 16.7632 14.2673 17.338 14.2673 18.047C14.2673 18.756 14.8421 19.3308 15.5511 19.3308Z" stroke="#14142B" stroke-width="0.5" stroke-miterlimit="10" stroke-linecap="round" stroke-linejoin="round"/>
<path d="M15.5512 18.6098C15.8622 18.6098 16.1143 18.3576 16.1143 18.0466C16.1143 17.7355 15.8622 17.4834 15.5512 17.4834C15.2401 17.4834 14.988 17.7355 14.988 18.0466C14.988 18.3576 15.2401 18.6098 15.5512 18.6098Z" stroke="#14142B" stroke-width="0.5" stroke-miterlimit="10" stroke-linecap="round" stroke-linejoin="round"/>
<path d="M5.48957 18.6098C5.80061 18.6098 6.05275 18.3576 6.05275 18.0466C6.05275 17.7355 5.80061 17.4834 5.48957 17.4834C5.17854 17.4834 4.92639 17.7355 4.92639 18.0466C4.92639 18.3576 5.17854 18.6098 5.48957 18.6098Z" stroke="#14142B" stroke-width="0.5" stroke-miterlimit="10" stroke-linecap="round" stroke-linejoin="round"/>
<path d="M3.12598 6.7337V2.37549M3.12598 2.37549C3.12598 1.6158 2.51014 1 1.75045 1C0.990801 1 0.375 1.6158 0.375 2.37549" stroke="#14142B" stroke-width="0.5" stroke-miterlimit="10" stroke-linecap="round" stroke-linejoin="round"/>
<path d="M14.1689 7.2168H3.12598M3.12598 8.99609H14.6389M3.12598 10.7755H14.6389M3.12598 12.5549H12.8568" stroke="#14142B" stroke-width="0.5" stroke-miterlimit="10" stroke-linecap="round" stroke-linejoin="round"/>
<path d="M16.835 8.42824C18.7901 8.42824 20.375 6.84331 20.375 4.88819C20.375 2.93308 18.7901 1.34814 16.835 1.34814C14.8799 1.34814 13.2949 2.93308 13.2949 4.88819C13.2949 6.84331 14.8799 8.42824 16.835 8.42824Z" stroke="#14142B" stroke-width="0.5" stroke-miterlimit="10" stroke-linecap="round" stroke-linejoin="round"/>
<path d="M14.9608 4.81269L16.2579 6.10976L18.852 3.51562" stroke="#14142B" stroke-width="0.5" stroke-linecap="round"/>
</svg>
