<svg width="26" height="26" viewBox="0 0 26 26" fill="none" xmlns="http://www.w3.org/2000/svg">
<path d="M17 13.0002C17 15.2093 15.2091 17.0002 13 17.0002C10.7909 17.0002 9.00001 15.2093 9.00001 13.0002C9.00001 10.791 10.7909 9.00016 13 9.00016C15.2091 9.00016 17 10.791 17 13.0002Z" stroke="#14142B" stroke-width="2"/>
<path d="M11.2844 2.86309C12.061 1.56712 13.939 1.56712 14.7156 2.86309L15.4213 4.04086C15.8742 4.79665 16.7684 5.16702 17.6231 4.95284L18.9549 4.61908C20.4204 4.25182 21.7483 5.57974 21.3811 7.04526L21.0473 8.37711C20.8331 9.23178 21.2035 10.1259 21.9593 10.5788L23.1371 11.2846C24.433 12.0612 24.433 13.9391 23.1371 14.7157L21.9593 15.4215C21.2035 15.8744 20.8331 16.7685 21.0473 17.6232L21.3811 18.9551C21.7483 20.4206 20.4204 21.7485 18.9549 21.3812L17.6231 21.0475C16.7684 20.8333 15.8742 21.2037 15.4213 21.9595L14.7156 23.1372C13.939 24.4332 12.061 24.4332 11.2844 23.1372L10.5787 21.9595C10.1258 21.2037 9.23163 20.8333 8.37696 21.0475L7.0451 21.3812C5.57958 21.7485 4.25167 20.4206 4.61893 18.9551L4.95269 17.6232C5.16687 16.7685 4.7965 15.8744 4.0407 15.4215L2.86293 14.7157C1.56697 13.9391 1.56697 12.0612 2.86294 11.2846L4.0407 10.5788C4.7965 10.1259 5.16687 9.23178 4.95269 8.37711L4.61893 7.04525C4.25167 5.57974 5.57959 4.25182 7.0451 4.61908L8.37696 4.95284C9.23163 5.16702 10.1258 4.79665 10.5787 4.04085L11.2844 2.86309Z" stroke="#14142B" stroke-width="2"/>
</svg>
